<svg xmlns="http://www.w3.org/2000/svg" xmlns:xlink="http://www.w3.org/1999/xlink" id="Layer_1" x="0px" y="0px" viewBox="0 0 100 100" style="enable-background:new 0 0 100 100;" xml:space="preserve">
<path d="M6,56.4l0.3-0.6l21.1-33c0.3-0.5,1-0.4,1.3,0.1c3.5,7.9,6.6,17.7,5.1,23.8c-0.6,2.5-2.3,5.9-4.2,9.1  c-0.2,0.5-0.5,0.9-0.8,1.3c-0.1,0.2-0.4,0.3-0.6,0.3H6.6C6,57.5,5.6,56.9,6,56.4z"></path>
<path d="M100,62.5v5.2c0,0.3-0.2,0.6-0.5,0.7c-1.6,0.7-7.2,3.3-9.5,6.5C84.1,83.2,79.5,95,69.4,95H27.1C12.1,95,0,82.8,0,67.8v-0.5  c0-0.4,0.3-0.7,0.7-0.7h23.6c0.5,0,0.8,0.4,0.8,0.9c-0.2,1.5,0.1,3.1,0.8,4.5c1.4,2.8,4.3,4.6,7.4,4.6H45v-9.1H33.5  c-0.6,0-0.9-0.7-0.6-1.2c0.1-0.2,0.3-0.4,0.4-0.6c1.1-1.6,2.7-4,4.2-6.7c1.1-1.8,2.1-3.8,2.9-5.8c0.2-0.4,0.3-0.7,0.4-1.1  c0.2-0.6,0.5-1.2,0.6-1.8c0.2-0.5,0.3-1,0.4-1.5c0.4-1.7,0.6-3.5,0.6-5.3c0-0.7,0-1.5-0.1-2.2c0-0.8-0.1-1.6-0.2-2.4  c-0.1-0.7-0.2-1.4-0.3-2.1c-0.2-1.1-0.4-2.1-0.7-3.2L41,33.2c-0.2-0.7-0.4-1.4-0.6-2.1c-0.7-2.3-1.4-4.5-2.2-6.6  c-0.3-0.8-0.6-1.6-1-2.4c-0.5-1.2-1-2.3-1.4-3.3c-0.2-0.5-0.4-0.9-0.6-1.3c-0.2-0.5-0.5-1-0.7-1.4c-0.2-0.4-0.4-0.7-0.5-1l-1.4-2.6  c-0.2-0.4,0.1-0.8,0.5-0.7l8.9,2.4h0c0,0,0,0,0,0l1.2,0.3l1.3,0.4l0.5,0.1V9.6c0-2.6,2-4.6,4.6-4.6c1.3,0,2.4,0.5,3.2,1.4  c0.8,0.8,1.3,2,1.3,3.3v7.9l1,0.3c0.1,0,0.1,0.1,0.2,0.1c0.2,0.2,0.6,0.4,1,0.8c0.3,0.3,0.7,0.6,1.1,0.9c0.9,0.7,1.9,1.6,3,2.6  c0.3,0.3,0.6,0.5,0.9,0.8c1.5,1.3,3.1,2.9,4.6,4.7c0.4,0.5,0.9,1,1.3,1.5c0.4,0.5,0.9,1.1,1.3,1.6c0.5,0.7,1.1,1.4,1.6,2.2  c0.2,0.4,0.5,0.7,0.7,1.1c0.6,1,1.2,2,1.7,2.9c0.2,0.5,0.5,1,0.7,1.4c0.6,1.3,1.1,2.7,1.4,4c0.1,0.3,0.2,0.6,0.2,0.9v0.1  c0.1,0.4,0.1,0.8,0.2,1.3c0.1,1.4,0.1,2.8-0.2,4.2c-0.1,0.6-0.3,1.1-0.5,1.7c-0.2,0.6-0.4,1.2-0.7,1.7c-0.5,1.2-1.1,2.3-1.8,3.4  c-0.2,0.4-0.5,0.8-0.8,1.2c-0.3,0.4-0.6,0.8-0.9,1.2c-0.4,0.5-0.8,1-1.2,1.5c-0.4,0.5-0.7,1-1.1,1.4c-0.6,0.7-1.1,1.3-1.7,1.9  c-0.3,0.4-0.7,0.8-1.1,1.1c-0.4,0.4-0.7,0.8-1.1,1.1c-0.6,0.6-1,1-1.4,1.3l-0.9,0.8c-0.1,0.1-0.3,0.2-0.5,0.2h-7.1v9.1h8.9  c2,0,3.9-0.7,5.4-2c0.5-0.5,2.8-2.4,5.5-5.4c0.1-0.1,0.2-0.2,0.3-0.2l24.7-7.1C99.5,61.7,100,62,100,62.5z"></path>
</svg>